<svg id="Layer_1" enable-background="new 0 0 512 512" height="512" viewBox="0 0 512 512" width="512" xmlns="http://www.w3.org/2000/svg"><g><g clip-rule="evenodd" fill-rule="evenodd"><path d="m466.861 197.727c0-103.25-85.411-187.727-189.804-187.727s-189.805 84.476-189.805 187.726c0 20.193-19.517 50.386-31.165 66.616-24.055 33.517-7.887 56.345 43.025 56.345v62.555c0 28.136 23.275 51.156 51.722 51.156 66.989 0 73.219 4.624 77.346 67.602h167.977c-5.478-83.604-2.613-133.345 42.846-206.675 17.657-28.482 27.858-61.919 27.858-97.598z" fill="#ffd0c7"/><path d="m302.875 119.494c1.666.041 3.324.084 4.974.129-1.653-.046-3.311-.089-4.974-.129zm-22.232-.334c7.553.027 14.964.156 22.231.333-.498-.012-.996-.024-1.494-.036-6.33-.148-12.731-.256-19.211-.291-.508-.002-1.017-.004-1.526-.006zm13.23 55.995-4.821-.772c-.002-.001-.004-.002-.007-.001-28.98-17.176-57.16-35.279-83.459-50.867-29.669-17.589-56.942-31.979-80.268-38.229 15.186-19.967 34.292-36.875 56.161-49.576 14.1 2.744 35.102 13.448 56.282 26.935 28.512 18.156 57.344 41.357 70.088 56.978 1.919.053 3.832.108 5.739.165.02.001.039.001.059.002-10.374 11.261-21.477 29.27-21.477 44.42 0 3.772.596 7.455 1.703 10.945z" fill="#fff"/><path d="m289.053 174.382-.007-.001c.002 0 .004.001.007.001zm22.458 22.282c-6.276-3.465-11.475-8.741-14.896-15.06.001.002.002.003.003.005 3.394 6.273 8.548 11.542 14.823 15.016.024.013.047.026.07.039zm150.751 42.097c-40.454 0-83.72-16.268-126.507-38.319 11.022-2.191 20.347-9.551 25.454-19.317 2.673-5.112 4.191-10.883 4.191-16.917 0-14.741-10.511-32.188-20.634-43.494-6.401-7.15-12.647-11.843-15.981-11.843-3.188 0-9.037 4.291-15.139 10.916-10.373 11.262-21.476 29.271-21.476 44.421 0 3.773.596 7.456 1.703 10.945.283.888.598 1.764.945 2.625-1.925-1.128-3.847-2.26-5.766-3.397-.002-.001-.004-.002-.007-.001-28.98-17.176-57.16-35.279-83.459-50.867-29.669-17.589-56.942-31.979-80.268-38.229-16.094 21.161-27.787 45.761-33.699 72.435 114.555 0 185.413 137.604 347.384 137.604 10.688-17.238 18.643-36.293 23.259-56.562z" fill="#fff"/><path d="m313.646 119.788c-10.373 11.262-21.476 29.271-21.476 44.421 0 3.785.597 7.466 1.703 10.945.281.889.596 1.765.943 2.626 5.445 13.514 18.686 23.393 33.969 23.335 2.379.009 4.708-.223 6.966-.674.001.001.003.001.004.002 11.022-2.191 20.347-9.551 25.454-19.317 2.673-5.112 4.191-10.883 4.191-16.917 0-14.741-10.511-32.188-20.634-43.494-6.401-7.15-12.647-11.843-15.981-11.843-3.188 0-9.037 4.29-15.139 10.916z" fill="#cff5fd"/><g fill="#fff"><path d="m293.873 175.155c-1.106-3.48-1.703-7.161-1.703-10.945 0-15.15 11.103-33.159 21.477-44.42-1.922-.057-3.855-.113-5.798-.167-31.375-.858-65.478-1.024-102.262 3.892 26.299 15.588 54.479 33.69 83.459 50.867.003-.001.005 0 .007.001 1.594.265 3.203.521 4.82.772z"/><path d="m237.761 62.644c66.576-5.964 114.624 8.249 157.8-11.289-32.533-25.847-73.777-41.355-118.504-41.355-34.786 0-67.465 9.38-95.578 25.709 14.1 2.744 35.102 13.448 56.282 26.935z"/><path d="m395.561 51.355c-43.176 19.537-91.223 5.325-157.8 11.289 28.512 18.156 57.344 41.357 70.088 56.978 1.939.053 3.872.109 5.798.167 6.101-6.627 11.95-10.917 15.138-10.917 3.334 0 9.579 4.694 15.98 11.844 37.663.898 70.74-.026 99.12-12.246-12.15-22.059-28.644-41.479-48.324-57.115z"/><path d="m443.885 108.47c-28.38 12.22-61.457 13.144-99.12 12.246 10.123 11.305 20.635 28.752 20.635 43.493 0 6.034-1.517 11.805-4.193 16.916 38.806 1.105 76.893-1.723 103.889-8.957-3.169-22.762-10.503-44.255-21.211-63.698z"/><path d="m465.095 172.167c-26.996 7.234-65.083 10.062-103.889 8.957-5.105 9.767-14.43 17.127-25.452 19.318 42.788 22.05 86.053 38.319 126.507 38.319 3.01-13.218 4.599-26.951 4.599-41.034.001-8.665-.601-17.198-1.765-25.56z"/></g></g><g><path d="m418.139 58.034c-37.839-37.424-87.943-58.034-141.082-58.034s-103.244 20.61-141.082 58.034c-37.868 37.454-58.723 87.064-58.723 139.692 0 12.695-10.676 34.851-29.289 60.784-16.369 22.808-14.104 38.703-9.323 48.021 5.154 10.042 18.137 21.841 50.473 23.855v52.854c0 33.722 27.688 61.156 61.723 61.156 31.668 0 48.081 1.16 55.707 7.75 7.482 6.466 9.797 22.081 11.66 50.506.345 5.258 4.71 9.346 9.979 9.346h167.978c2.766 0 5.408-1.146 7.299-3.164s2.86-4.73 2.68-7.49c-1.744-26.605-2.309-45.086-1.888-61.792.139-5.521-4.225-10.109-9.745-10.249-.086-.002-.171-.003-.257-.003-5.405 0-9.855 4.313-9.992 9.748-.377 14.988.002 31.232 1.264 52.95h-148.019c-1.994-25.901-5.227-44.047-17.883-54.983-13.617-11.769-35.07-12.618-68.784-12.618-23.006 0-41.723-18.463-41.723-41.156v-17.568c.558.097 1.128.157 1.714.157h35.143c5.522 0 10-4.478 10-10s-4.478-10-10-10h-35.143c-.585 0-1.156.061-1.714.157v-25.302c0-5.522-4.478-10-10-10-22.454 0-38.409-4.967-42.679-13.286-3.163-6.163-.4-15.833 7.777-27.228 15.073-21.001 33.041-50.617 33.041-72.446 0-10.133.875-20.066 2.531-29.74 45.694 2.777 84.368 28.456 128.787 57.973 52.371 34.801 111.285 73.948 193.175 78.85-8.395 14.818-15.129 28.922-20.434 42.771-1.975 5.157.604 10.939 5.763 12.915 5.157 1.974 10.94-.604 12.915-5.763 6.578-17.177 15.578-34.887 27.513-54.14 19.207-30.981 29.359-66.553 29.359-102.867.001-52.625-20.853-102.236-58.721-139.69zm-167.678 81.127c-4.722-2.917-9.414-5.815-14.074-8.68 20.346-1.398 39.68-1.494 57.545-1.177-4.913 7.89-10.071 18.446-11.418 29.494-10.84-6.547-21.57-13.16-32.053-19.637zm51.709 25.048c0-16.811 18.97-39.831 26.615-44.764 7.646 4.933 26.614 27.953 26.614 44.764 0 7.03-2.949 14-8.091 19.122-5.063 5.045-11.65 7.809-18.562 7.783-.033 0-.064 0-.098 0-6.82 0-13.348-2.762-18.389-7.783-5.14-5.122-8.089-12.092-8.089-19.122zm151.549.404c-21.236 4.556-48.635 6.894-78.894 6.739.376-2.359.575-4.747.575-7.143 0-12.189-5.353-24.212-10.741-33.229 25.46-.026 51.191-1.854 74.557-10 6.648 13.67 11.569 28.308 14.503 43.633zm-92.296 32.887c1.944-1.936 3.695-4.038 5.262-6.256 3.635.068 7.249.115 10.817.115 29.848 0 57.123-2.371 78.861-6.865.327 4.37.498 8.782.498 13.233 0 10.373-.932 20.678-2.748 30.806-27.676-1.502-58.647-10.573-95.879-28.134 1.097-.914 2.163-1.877 3.189-2.899zm67.856-94.257c-21.957 6.962-47.555 8.204-80.07 7.567-5.985-6.108-13.507-11.938-20.424-11.938-5.899 0-12.237 4.241-17.688 9.277-9.979-10.778-25.521-24.067-43.241-37.032 13.377-.212 26.042.151 38.449.512 32.385.942 60.626 1.762 87.707-8.779 13.697 11.62 25.605 25.239 35.267 40.393zm-55.171-55.069c-19.812 4.836-41.419 4.211-67.222 3.463-19.734-.575-41.998-1.213-66.616.764-9.954-6.234-21.773-13.059-33.31-18.337 21.551-9.052 45.243-14.064 70.097-14.064 35.719 0 69.038 10.351 97.051 28.174zm-191.13-1.843c25.151 6.825 72.237 37.795 100.471 62.844-23.27-.159-48.755.601-75.73 3.994-23.352-13.737-45.454-25.54-65.454-32.927 11.777-13.187 25.495-24.638 40.713-33.911zm-78.634 101.937c5.451-18.57 13.894-35.891 24.772-51.429 31.006 10.022 69.851 34.018 110.833 59.337 15.288 9.443 31.077 19.183 47.094 28.618 2.3 4.662 5.36 8.978 9.102 12.705 8.818 8.784 20.354 13.614 32.426 13.614h.352c1.732 0 3.45-.109 5.151-.303 44.97 22.887 82.031 34.955 115.289 37.452-3.879 12.835-9.221 25.246-15.99 36.98-81.909-1.668-138.746-39.401-193.733-75.941-43.958-29.209-85.66-56.9-135.296-61.033z"/><path d="m137.191 214.542c-5.522 0-9.996 4.478-9.996 10s4.482 10 10.005 10 10-4.478 10-10-4.478-10-10-10z"/><path d="m398.541 384.506h-.008c-5.522 0-9.996 4.478-9.996 10s4.481 10 10.004 10 10-4.478 10-10-4.477-10-10-10z"/></g></g></svg>